<?xml version="1.0" encoding="utf-8"?>
<!-- Generator: Adobe Illustrator 25.2.3, SVG Export Plug-In . SVG Version: 6.00 Build 0)  -->
<svg version="1.1" xmlns="http://www.w3.org/2000/svg" xmlns:xlink="http://www.w3.org/1999/xlink" x="0px" y="0px"
	 viewBox="0 0 432 216" style="enable-background:new 0 0 432 216;" xml:space="preserve">
<style type="text/css">
	.st0{display:none;}
	.st1{display:inline;}
	.st2{fill:#23A5DC;}
	.st3{fill:#EF5E17;}
	.st4{fill:#FFFFFF;}
</style>
<g id="Calque_2" class="st0">
	<rect x="-0.2" y="0.2" class="st1" width="434" height="216.5"/>
</g>
<g id="Calque_1">
	<g>
		<g>
			<polygon class="st4" points="78.5,78.9 94.7,135.4 105.8,135.4 81.5,52.9 74.7,52.9 50.5,135.4 62.2,135.4 			"/>
			<path class="st4" d="M78.2,120.7L78.2,120.7L78.2,120.7c-6.2,0-11.1,5-11.1,11c0,1.3,0.5,4.5,2.2,7.1c2,3.2,8,10.3,8.9,11.3l0,0
				l0,0c0.9-1,6.8-8.1,8.9-11.4c1.6-2.6,2.1-5.8,2.1-7.1C89.2,125.6,84.3,120.7,78.2,120.7"/>
		</g>
		<g>
			<path class="st4" d="M151.1,79.7c-1.7-1.7-3.7-3-5.9-4c-2.3-1-4.7-1.5-7.2-1.5h-1.7c-3.1,0-5.9,0.7-8.5,2.1
				c-1.7,0.9-3.2,2-4.5,3.3l-8.2-4.3v60.1h10.9v-43c0-1.1,0.2-2.1,0.6-3c0.4-0.9,1-1.8,1.6-2.4c0.7-0.7,1.5-1.2,2.4-1.6
				c0.9-0.4,1.9-0.6,3-0.6h4.5c1.1,0,2.1,0.2,3,0.6c0.9,0.4,1.8,1,2.4,1.6c0.7,0.7,1.2,1.5,1.6,2.4c0.4,0.9,0.6,1.9,0.6,3v43h10.9
				V92.8c0-2.5-0.5-5-1.5-7.2C154.1,83.3,152.7,81.3,151.1,79.7"/>
			<polygon class="st4" points="185.2,114 171.9,75.3 160.7,75.3 179.6,128.5 167.1,163.1 178,163.1 202.9,94.4 191.7,94.4 			"/>
			<path class="st4" d="M222.4,60.4l-10.9,1.8v13.1h-12.9l-3.8,10.6h16.7v32.7c0,2.3,0.5,4.5,1.4,6.6c0.9,2,2.1,3.8,3.6,5.3
				c1.5,1.5,3.3,2.8,5.4,3.6c2.1,0.9,4.3,1.3,6.6,1.3h8.2v-10.6h-8.2c-0.9,0-1.6-0.2-2.3-0.5c-0.7-0.3-1.4-0.7-1.9-1.3
				c-0.5-0.5-1-1.2-1.3-1.9c-0.3-0.7-0.5-1.5-0.5-2.3v-33h14.2V75.3h-14.2V60.4z"/>
			<path class="st4" d="M259,76.3c-1.7,0.9-3.2,2-4.5,3.3l-8.2-4.3v60.1h10.9V93.5c0-1.1,0.2-2.1,0.6-3c0.4-0.9,1-1.8,1.6-2.4
				c0.7-0.7,1.5-1.2,2.4-1.6c0.9-0.4,1.9-0.6,3-0.6h8.8V74.2h-6C264.4,74.2,261.6,74.9,259,76.3"/>
			<path class="st4" d="M317.6,79.7c-1.7-1.7-3.7-3-5.9-4c-2.3-1-4.7-1.5-7.2-1.5H300c-2.5,0-5,0.5-7.2,1.5c-2.2,1-4.2,2.3-5.9,4
				c-1.7,1.7-3,3.7-4,5.9c-1,2.3-1.5,4.7-1.5,7.2V118c0,2.5,0.5,5,1.5,7.2c1,2.2,2.3,4.2,4,5.9c1.7,1.7,3.7,3,5.9,4
				c2.3,1,4.7,1.5,7.2,1.5h4.5c2.5,0,5-0.5,7.2-1.5c2.2-1,4.2-2.3,5.9-4c1.7-1.7,2.9-3.7,4-5.9c1.7-3.4,1.5-9.7,1.5-9.7l-10.9-0.1v3
				c0,1.1-0.2,2.1-0.6,3c-0.4,0.9-0.9,1.7-1.6,2.4c-0.7,0.7-1.5,1.2-2.4,1.6c-0.9,0.4-1.9,0.6-3,0.6H300c-1.1,0-2-0.2-3-0.6
				c-0.9-0.4-1.7-1-2.4-1.6c-0.7-0.7-1.2-1.5-1.6-2.4c-0.4-0.9-0.6-1.9-0.6-3V108h30.6V92.8c0-2.5-0.5-5-1.5-7.2
				C320.6,83.3,319.3,81.3,317.6,79.7 M300,84.8h4.5c1.1,0,2,0.2,3,0.6c0.9,0.4,1.8,1,2.4,1.6c0.7,0.7,1.2,1.5,1.6,2.4
				c0.4,0.9,0.6,1.9,0.6,3v6.2h-19.7v-6.2c0-1.1,0.2-2.1,0.6-3c0.4-0.9,1-1.8,1.6-2.4c0.7-0.7,1.5-1.2,2.4-1.6
				C298,85,299,84.8,300,84.8"/>
			<polygon class="st4" points="380.5,75.3 366.3,75.3 345.2,101.1 345.2,59.8 334.3,62.1 334.3,135.4 345.2,135.4 345.2,109.6 
				366.3,135.4 380.5,135.4 355.3,105.4 			"/>
		</g>
		<g>
			<path class="st4" d="M370.4,61v5.2h-1V61h-1.8v-0.9h4.6V61H370.4z M377.9,66.2v-3.4l-1.7,3.4h-0.5l-1.6-3.4v3.4h-1v-6.1h0.6
				l2.3,4.6l2.3-4.6h0.5v6.1H377.9z"/>
		</g>
	</g>
</g>
</svg>
