<?xml version="1.0" encoding="utf-8"?>
<!-- Generator: Adobe Illustrator 25.2.3, SVG Export Plug-In . SVG Version: 6.00 Build 0)  -->
<svg version="1.1" xmlns="http://www.w3.org/2000/svg" xmlns:xlink="http://www.w3.org/1999/xlink" x="0px" y="0px"
	 viewBox="0 0 432 216" style="enable-background:new 0 0 432 216;" xml:space="preserve">
<style type="text/css">
	.st0{display:none;}
	.st1{display:inline;}
	.st2{fill:#23A5DC;}
	.st3{fill:#EF5E17;}
	.st4{fill:#FFFFFF;}
</style>
<g id="Calque_2" class="st0">
</g>
<g id="Calque_1">
	<g>
		<g>
			<polygon points="77.7,77 93.9,133.4 105,133.4 80.7,50.9 73.9,50.9 49.7,133.4 61.4,133.4 			"/>
			<path d="M77.4,118.7L77.4,118.7L77.4,118.7c-6.2,0-11.1,5-11.1,11c0,1.3,0.5,4.5,2.2,7.1c2,3.2,8,10.3,8.9,11.3l0,0l0,0
				c0.9-1,6.8-8.1,8.9-11.4c1.6-2.6,2.1-5.8,2.1-7.1C88.4,123.6,83.5,118.7,77.4,118.7"/>
		</g>
		<g>
			<path d="M150.2,77.7c-1.7-1.7-3.7-3-5.9-4c-2.3-1-4.7-1.5-7.2-1.5h-1.7c-3.1,0-5.9,0.7-8.5,2.1c-1.7,0.9-3.2,2-4.5,3.3l-8.2-4.3
				v60.1H125v-43c0-1.1,0.2-2.1,0.6-3c0.4-0.9,1-1.8,1.6-2.4c0.7-0.7,1.5-1.2,2.4-1.6c0.9-0.4,1.9-0.6,3-0.6h4.5
				c1.1,0,2.1,0.2,3,0.6c0.9,0.4,1.8,1,2.4,1.6c0.7,0.7,1.2,1.5,1.6,2.4c0.4,0.9,0.6,1.9,0.6,3v43h10.9V90.8c0-2.5-0.5-5-1.5-7.2
				C153.3,81.3,151.9,79.3,150.2,77.7"/>
			<polygon points="184.4,112 171.1,73.3 159.9,73.3 178.8,126.5 166.3,161.1 177.2,161.1 202.1,92.4 190.9,92.4 			"/>
			<path d="M221.5,58.4l-10.9,1.8v13.1h-12.9l-3.8,10.6h16.7v32.7c0,2.3,0.5,4.5,1.4,6.6c0.9,2,2.1,3.8,3.6,5.3
				c1.5,1.5,3.3,2.8,5.4,3.6c2.1,0.9,4.3,1.3,6.6,1.3h8.2v-10.6h-8.2c-0.9,0-1.6-0.2-2.3-0.5c-0.7-0.3-1.4-0.7-1.9-1.3
				c-0.5-0.5-1-1.2-1.3-1.9c-0.3-0.7-0.5-1.5-0.5-2.3v-33h14.2V73.3h-14.2V58.4z"/>
			<path d="M258.2,74.3c-1.7,0.9-3.2,2-4.5,3.3l-8.2-4.3v60.1h10.9V91.5c0-1.1,0.2-2.1,0.6-3c0.4-0.9,1-1.8,1.6-2.4
				c0.7-0.7,1.5-1.2,2.4-1.6c0.9-0.4,1.9-0.6,3-0.6h8.8V72.2h-6C263.6,72.2,260.8,72.9,258.2,74.3"/>
			<path d="M316.8,77.7c-1.7-1.7-3.7-3-5.9-4c-2.3-1-4.7-1.5-7.2-1.5h-4.5c-2.5,0-5,0.5-7.2,1.5c-2.2,1-4.2,2.3-5.9,4
				c-1.7,1.7-3,3.7-4,5.9c-1,2.3-1.5,4.7-1.5,7.2V116c0,2.5,0.5,5,1.5,7.2c1,2.2,2.3,4.2,4,5.9c1.7,1.7,3.7,3,5.9,4
				c2.3,1,4.7,1.5,7.2,1.5h4.5c2.5,0,5-0.5,7.2-1.5c2.2-1,4.2-2.3,5.9-4c1.7-1.7,2.9-3.7,4-5.9c1.7-3.4,1.5-9.7,1.5-9.7l-10.9-0.1v3
				c0,1.1-0.2,2.1-0.6,3c-0.4,0.9-0.9,1.7-1.6,2.4c-0.7,0.7-1.5,1.2-2.4,1.6c-0.9,0.4-1.9,0.6-3,0.6h-4.5c-1.1,0-2-0.2-3-0.6
				c-0.9-0.4-1.7-1-2.4-1.6c-0.7-0.7-1.2-1.5-1.6-2.4c-0.4-0.9-0.6-1.9-0.6-3V106h30.6V90.8c0-2.5-0.5-5-1.5-7.2
				C319.8,81.3,318.5,79.3,316.8,77.7 M299.2,82.8h4.5c1.1,0,2,0.2,3,0.6c0.9,0.4,1.8,1,2.4,1.6c0.7,0.7,1.2,1.5,1.6,2.4
				c0.4,0.9,0.6,1.9,0.6,3v6.2h-19.7v-6.2c0-1.1,0.2-2.1,0.6-3c0.4-0.9,1-1.8,1.6-2.4c0.7-0.7,1.5-1.2,2.4-1.6
				C297.2,83,298.2,82.8,299.2,82.8"/>
			<polygon points="379.7,73.3 365.4,73.3 344.4,99.1 344.4,57.8 333.5,60.1 333.5,133.4 344.4,133.4 344.4,107.7 365.4,133.4 
				379.7,133.4 354.5,103.4 			"/>
			<g>
				<path d="M213,157.1c0,0.4-0.1,0.8-0.3,1.2c-0.2,0.4-0.4,0.7-0.7,1c-0.3,0.3-0.6,0.5-1,0.6c-0.4,0.2-0.8,0.2-1.2,0.2H209
					c-0.4,0-0.8-0.1-1.2-0.2c-0.4-0.2-0.7-0.4-1-0.6c-0.3-0.3-0.5-0.6-0.7-1c-0.2-0.4-0.2-0.8-0.2-1.2v-0.5l1.1-0.2v0.7
					c0,0.3,0.1,0.5,0.2,0.8c0.1,0.2,0.3,0.4,0.4,0.6c0.2,0.2,0.4,0.3,0.6,0.4c0.2,0.1,0.5,0.2,0.8,0.2h0.8c0.3,0,0.5-0.1,0.8-0.2
					c0.2-0.1,0.5-0.2,0.6-0.4c0.2-0.2,0.3-0.4,0.4-0.6c0.1-0.2,0.2-0.5,0.2-0.8v-0.4c0-0.4-0.1-0.8-0.2-1c-0.2-0.3-0.4-0.5-0.7-0.7
					s-0.6-0.4-0.9-0.5c-0.3-0.1-0.7-0.3-1.1-0.4s-0.7-0.3-1.1-0.5c-0.3-0.2-0.7-0.4-0.9-0.6c-0.3-0.2-0.5-0.5-0.7-0.9
					c-0.2-0.4-0.2-0.8-0.2-1.3v-0.2c0-0.4,0.1-0.8,0.2-1.2c0.2-0.4,0.4-0.7,0.6-1c0.3-0.3,0.6-0.5,1-0.6c0.4-0.2,0.8-0.2,1.2-0.2
					h0.8c0.4,0,0.8,0.1,1.2,0.2c0.4,0.2,0.7,0.4,1,0.6c0.3,0.3,0.5,0.6,0.6,1c0.2,0.4,0.2,0.8,0.2,1.2v0.3l-1.1,0.2v-0.5
					c0-0.3-0.1-0.5-0.2-0.8c-0.1-0.2-0.2-0.4-0.4-0.6c-0.2-0.2-0.4-0.3-0.6-0.4c-0.2-0.1-0.5-0.2-0.8-0.2h-0.7
					c-0.3,0-0.5,0.1-0.8,0.2c-0.2,0.1-0.4,0.2-0.6,0.4c-0.2,0.2-0.3,0.4-0.4,0.6c-0.1,0.2-0.2,0.5-0.2,0.8v0.2c0,0.4,0.1,0.7,0.2,1
					c0.2,0.3,0.4,0.5,0.7,0.7s0.6,0.4,0.9,0.5s0.7,0.3,1.1,0.4s0.7,0.3,1.1,0.5c0.3,0.2,0.7,0.4,0.9,0.6s0.5,0.6,0.7,0.9
					s0.2,0.8,0.2,1.3V157.1z"/>
				<path d="M225.4,159.9v-6.4c0-0.2,0-0.4-0.1-0.6c-0.1-0.2-0.2-0.3-0.3-0.5s-0.3-0.2-0.5-0.3c-0.2-0.1-0.4-0.1-0.6-0.1h-0.5
					c-0.2,0-0.4,0-0.6,0.1c-0.2,0.1-0.3,0.2-0.5,0.3s-0.2,0.3-0.3,0.5c-0.1,0.2-0.1,0.4-0.1,0.6v6.4h-1v-6.4c0-0.2,0-0.4-0.1-0.6
					c-0.1-0.2-0.2-0.3-0.3-0.5s-0.3-0.2-0.5-0.3c-0.2-0.1-0.4-0.1-0.6-0.1h-0.5c-0.2,0-0.4,0-0.6,0.1c-0.2,0.1-0.3,0.2-0.5,0.3
					s-0.2,0.3-0.3,0.5c-0.1,0.2-0.1,0.4-0.1,0.6v6.4h-1v-8.7h0.3l0.6,0.9c0.2-0.3,0.5-0.6,0.9-0.8c0.4-0.2,0.8-0.3,1.2-0.3h0.1
					c0.5,0,0.9,0.1,1.3,0.4c0.4,0.2,0.7,0.6,0.9,1c0.1-0.2,0.2-0.4,0.4-0.5s0.3-0.3,0.5-0.4c0.2-0.1,0.4-0.2,0.6-0.3
					c0.2-0.1,0.5-0.1,0.7-0.1h0.1c0.4,0,0.7,0.1,1,0.2c0.3,0.1,0.6,0.3,0.8,0.5c0.2,0.2,0.4,0.5,0.5,0.8s0.2,0.6,0.2,1v6.3H225.4z"
					/>
				<path d="M235.3,159.9l-0.6-0.9c-0.2,0.3-0.5,0.6-0.9,0.8c-0.4,0.2-0.7,0.3-1.2,0.3h-0.3c-0.4,0-0.7-0.1-1-0.2
					c-0.3-0.1-0.6-0.3-0.8-0.5c-0.2-0.2-0.4-0.5-0.5-0.8s-0.2-0.6-0.2-1v-0.1c0-0.4,0.1-0.7,0.2-1c0.1-0.3,0.3-0.6,0.5-0.8
					c0.2-0.2,0.5-0.4,0.8-0.5c0.3-0.1,0.6-0.2,1-0.2h2.2v-1.3c0-0.2,0-0.4-0.1-0.6c-0.1-0.2-0.2-0.3-0.3-0.5
					c-0.1-0.1-0.3-0.2-0.5-0.3c-0.2-0.1-0.4-0.1-0.6-0.1h-0.6c-0.2,0-0.4,0-0.6,0.1c-0.2,0.1-0.3,0.2-0.5,0.3s-0.2,0.3-0.3,0.5
					c-0.1,0.2-0.1,0.4-0.1,0.6v0.3l-1-0.2v-0.1c0-0.4,0.1-0.7,0.2-1s0.3-0.6,0.5-0.8c0.2-0.2,0.5-0.4,0.8-0.5c0.3-0.1,0.6-0.2,1-0.2
					h0.6c0.4,0,0.7,0.1,1,0.2c0.3,0.1,0.6,0.3,0.8,0.5c0.2,0.2,0.4,0.5,0.5,0.8c0.1,0.3,0.2,0.6,0.2,1v6.3H235.3z M234.6,155.7h-2.2
					c-0.2,0-0.4,0-0.6,0.1c-0.2,0.1-0.3,0.2-0.5,0.3s-0.2,0.3-0.3,0.5c-0.1,0.2-0.1,0.4-0.1,0.6v0.4c0,0.2,0,0.4,0.1,0.6
					s0.2,0.3,0.3,0.5s0.3,0.2,0.5,0.3c0.2,0.1,0.4,0.1,0.6,0.1h0.7c0.2,0,0.4,0,0.6-0.1c0.2-0.1,0.3-0.2,0.5-0.3
					c0.1-0.1,0.2-0.3,0.3-0.5s0.1-0.4,0.1-0.6V155.7z"/>
				<path d="M241.6,152.2c-0.2,0-0.4,0-0.6,0.1c-0.2,0.1-0.3,0.2-0.5,0.3c-0.1,0.1-0.2,0.3-0.3,0.5s-0.1,0.4-0.1,0.6v6.2h-1v-8.7
					h0.3l0.6,0.9c0.2-0.3,0.5-0.6,0.9-0.8c0.4-0.2,0.8-0.3,1.2-0.3h0.6v1.2H241.6z"/>
				<path d="M248.5,159.9c-0.3,0-0.6-0.1-0.9-0.2c-0.3-0.1-0.5-0.3-0.7-0.5c-0.2-0.2-0.4-0.5-0.5-0.7c-0.1-0.3-0.2-0.6-0.2-0.9v-5.4
					h-1.6v-1h1.6v-2.1l1-0.2v2.3h2.2v1h-2.2v5.5c0,0.2,0,0.3,0.1,0.5c0.1,0.2,0.2,0.3,0.3,0.4s0.2,0.2,0.4,0.3
					c0.2,0.1,0.3,0.1,0.5,0.1h1v1H248.5z"/>
				<path d="M261.2,148.8v11.1h-1.1v-11.1h-2.9v-1h6.9v1H261.2z"/>
				<path d="M269.4,152.2c-0.2,0-0.4,0-0.6,0.1c-0.2,0.1-0.3,0.2-0.5,0.3c-0.1,0.1-0.2,0.3-0.3,0.5s-0.1,0.4-0.1,0.6v6.2h-1v-8.7
					h0.3l0.6,0.9c0.2-0.3,0.5-0.6,0.9-0.8c0.4-0.2,0.8-0.3,1.2-0.3h0.6v1.2H269.4z"/>
				<path d="M278.6,159.9l-0.6-0.9c-0.2,0.3-0.5,0.6-0.9,0.8c-0.4,0.2-0.7,0.3-1.2,0.3h-0.3c-0.4,0-0.7-0.1-1-0.2
					c-0.3-0.1-0.6-0.3-0.8-0.5c-0.2-0.2-0.4-0.5-0.5-0.8s-0.2-0.6-0.2-1v-0.1c0-0.4,0.1-0.7,0.2-1c0.1-0.3,0.3-0.6,0.5-0.8
					c0.2-0.2,0.5-0.4,0.8-0.5c0.3-0.1,0.6-0.2,1-0.2h2.2v-1.3c0-0.2,0-0.4-0.1-0.6c-0.1-0.2-0.2-0.3-0.3-0.5
					c-0.1-0.1-0.3-0.2-0.5-0.3c-0.2-0.1-0.4-0.1-0.6-0.1h-0.6c-0.2,0-0.4,0-0.6,0.1c-0.2,0.1-0.3,0.2-0.5,0.3s-0.2,0.3-0.3,0.5
					c-0.1,0.2-0.1,0.4-0.1,0.6v0.3l-1-0.2v-0.1c0-0.4,0.1-0.7,0.2-1s0.3-0.6,0.5-0.8c0.2-0.2,0.5-0.4,0.8-0.5c0.3-0.1,0.6-0.2,1-0.2
					h0.6c0.4,0,0.7,0.1,1,0.2c0.3,0.1,0.6,0.3,0.8,0.5c0.2,0.2,0.4,0.5,0.5,0.8c0.1,0.3,0.2,0.6,0.2,1v6.3H278.6z M277.9,155.7h-2.2
					c-0.2,0-0.4,0-0.6,0.1c-0.2,0.1-0.3,0.2-0.5,0.3s-0.2,0.3-0.3,0.5c-0.1,0.2-0.1,0.4-0.1,0.6v0.4c0,0.2,0,0.4,0.1,0.6
					s0.2,0.3,0.3,0.5s0.3,0.2,0.5,0.3c0.2,0.1,0.4,0.1,0.6,0.1h0.7c0.2,0,0.4,0,0.6-0.1c0.2-0.1,0.3-0.2,0.5-0.3
					c0.1-0.1,0.2-0.3,0.3-0.5s0.1-0.4,0.1-0.6V155.7z"/>
				<path d="M282.6,149.1v-1.4h1.2v1.4H282.6z M282.6,159.9v-8.7h1v8.7H282.6z"/>
				<path d="M287.8,159.9v-12.2h1v12.2H287.8z"/>
				<path d="M298.1,158.5c-0.1,0.3-0.3,0.6-0.5,0.8c-0.2,0.2-0.5,0.4-0.8,0.5c-0.3,0.1-0.6,0.2-1,0.2h-0.7c-0.4,0-0.7-0.1-1-0.2
					c-0.3-0.1-0.6-0.3-0.8-0.5c-0.2-0.2-0.4-0.5-0.5-0.8s-0.2-0.6-0.2-1v-3.9c0-0.4,0.1-0.7,0.2-1s0.3-0.6,0.5-0.8
					c0.2-0.2,0.5-0.4,0.8-0.5c0.3-0.1,0.6-0.2,1-0.2h0.7c0.4,0,0.7,0.1,1,0.2c0.3,0.1,0.6,0.3,0.8,0.5c0.2,0.2,0.4,0.5,0.5,0.8
					c0.1,0.3,0.2,0.6,0.2,1v2h-4.8v1.9c0,0.2,0,0.4,0.1,0.6s0.2,0.3,0.3,0.5s0.3,0.2,0.5,0.3c0.2,0.1,0.4,0.1,0.6,0.1h0.7
					c0.2,0,0.4,0,0.6-0.1c0.2-0.1,0.3-0.2,0.5-0.3c0.1-0.1,0.2-0.3,0.3-0.5s0.1-0.4,0.1-0.6V157l1,0.2v0.3
					C298.3,157.9,298.3,158.2,298.1,158.5z M297.3,153.6c0-0.2,0-0.4-0.1-0.6c-0.1-0.2-0.2-0.3-0.3-0.5c-0.1-0.1-0.3-0.2-0.5-0.3
					c-0.2-0.1-0.4-0.1-0.6-0.1h-0.7c-0.2,0-0.4,0-0.6,0.1c-0.2,0.1-0.3,0.2-0.5,0.3s-0.2,0.3-0.3,0.5c-0.1,0.2-0.1,0.4-0.1,0.6v1.3
					h3.7V153.6z"/>
				<path d="M304.3,152.2c-0.2,0-0.4,0-0.6,0.1c-0.2,0.1-0.3,0.2-0.5,0.3c-0.1,0.1-0.2,0.3-0.3,0.5s-0.1,0.4-0.1,0.6v6.2h-1v-8.7
					h0.3l0.6,0.9c0.2-0.3,0.5-0.6,0.9-0.8c0.4-0.2,0.8-0.3,1.2-0.3h0.6v1.2H304.3z"/>
				<path d="M320.3,157.1c0,0.4-0.1,0.8-0.3,1.2c-0.2,0.4-0.4,0.7-0.7,1c-0.3,0.3-0.6,0.5-1,0.6c-0.4,0.2-0.8,0.2-1.2,0.2h-0.9
					c-0.4,0-0.8-0.1-1.2-0.2c-0.4-0.2-0.7-0.4-1-0.6c-0.3-0.3-0.5-0.6-0.7-1c-0.2-0.4-0.2-0.8-0.2-1.2v-0.5l1.1-0.2v0.7
					c0,0.3,0.1,0.5,0.2,0.8c0.1,0.2,0.3,0.4,0.4,0.6c0.2,0.2,0.4,0.3,0.6,0.4c0.2,0.1,0.5,0.2,0.8,0.2h0.8c0.3,0,0.5-0.1,0.8-0.2
					c0.2-0.1,0.5-0.2,0.6-0.4c0.2-0.2,0.3-0.4,0.4-0.6c0.1-0.2,0.2-0.5,0.2-0.8v-0.4c0-0.4-0.1-0.8-0.2-1c-0.2-0.3-0.4-0.5-0.7-0.7
					s-0.6-0.4-0.9-0.5c-0.3-0.1-0.7-0.3-1.1-0.4s-0.7-0.3-1.1-0.5c-0.3-0.2-0.7-0.4-0.9-0.6c-0.3-0.2-0.5-0.5-0.7-0.9
					c-0.2-0.4-0.2-0.8-0.2-1.3v-0.2c0-0.4,0.1-0.8,0.2-1.2c0.2-0.4,0.4-0.7,0.6-1c0.3-0.3,0.6-0.5,1-0.6c0.4-0.2,0.8-0.2,1.2-0.2
					h0.8c0.4,0,0.8,0.1,1.2,0.2c0.4,0.2,0.7,0.4,1,0.6c0.3,0.3,0.5,0.6,0.6,1c0.2,0.4,0.2,0.8,0.2,1.2v0.3l-1.1,0.2v-0.5
					c0-0.3-0.1-0.5-0.2-0.8c-0.1-0.2-0.2-0.4-0.4-0.6c-0.2-0.2-0.4-0.3-0.6-0.4c-0.2-0.1-0.5-0.2-0.8-0.2h-0.7
					c-0.3,0-0.5,0.1-0.8,0.2c-0.2,0.1-0.4,0.2-0.6,0.4c-0.2,0.2-0.3,0.4-0.4,0.6c-0.1,0.2-0.2,0.5-0.2,0.8v0.2c0,0.4,0.1,0.7,0.2,1
					c0.2,0.3,0.4,0.5,0.7,0.7s0.6,0.4,0.9,0.5s0.7,0.3,1.1,0.4s0.7,0.3,1.1,0.5c0.3,0.2,0.7,0.4,0.9,0.6s0.5,0.6,0.7,0.9
					s0.2,0.8,0.2,1.3V157.1z"/>
				<path d="M329.2,158.5c-0.1,0.3-0.3,0.6-0.5,0.8c-0.2,0.2-0.5,0.4-0.8,0.5c-0.3,0.1-0.6,0.2-1,0.2h-0.7c-0.4,0-0.7-0.1-1-0.2
					c-0.3-0.1-0.6-0.3-0.8-0.5c-0.2-0.2-0.4-0.5-0.5-0.8s-0.2-0.6-0.2-1v-3.9c0-0.4,0.1-0.7,0.2-1s0.3-0.6,0.5-0.8
					c0.2-0.2,0.5-0.4,0.8-0.5c0.3-0.1,0.6-0.2,1-0.2h0.7c0.4,0,0.7,0.1,1,0.2c0.3,0.1,0.6,0.3,0.8,0.5c0.2,0.2,0.4,0.5,0.5,0.8
					c0.1,0.3,0.2,0.6,0.2,1v3.9C329.4,157.9,329.4,158.2,329.2,158.5z M328.4,153.6c0-0.2,0-0.4-0.1-0.6c-0.1-0.2-0.2-0.3-0.3-0.5
					c-0.1-0.1-0.3-0.2-0.5-0.3c-0.2-0.1-0.4-0.1-0.6-0.1h-0.7c-0.2,0-0.4,0-0.6,0.1c-0.2,0.1-0.3,0.2-0.5,0.3s-0.2,0.3-0.3,0.5
					c-0.1,0.2-0.1,0.4-0.1,0.6v4c0,0.2,0,0.4,0.1,0.6s0.2,0.3,0.3,0.5s0.3,0.2,0.5,0.3c0.2,0.1,0.4,0.1,0.6,0.1h0.7
					c0.2,0,0.4,0,0.6-0.1c0.2-0.1,0.3-0.2,0.5-0.3c0.1-0.1,0.2-0.3,0.3-0.5s0.1-0.4,0.1-0.6V153.6z"/>
				<path d="M333.2,159.9v-12.2h1v12.2H333.2z"/>
				<path d="M343.4,159.9l-0.6-0.9c-0.2,0.3-0.5,0.6-0.9,0.8c-0.4,0.2-0.7,0.3-1.2,0.3h-0.3c-0.4,0-0.7-0.1-1-0.2
					c-0.3-0.1-0.6-0.3-0.8-0.5c-0.2-0.2-0.4-0.5-0.5-0.8s-0.2-0.6-0.2-1v-6.3h1v6.4c0,0.2,0,0.4,0.1,0.6s0.2,0.3,0.3,0.5
					s0.3,0.2,0.5,0.3c0.2,0.1,0.4,0.1,0.6,0.1h0.7c0.2,0,0.4,0,0.6-0.1c0.2-0.1,0.3-0.2,0.5-0.3c0.1-0.1,0.2-0.3,0.3-0.5
					s0.1-0.4,0.1-0.6v-6.4h1v8.7H343.4z"/>
				<path d="M350.3,159.9c-0.3,0-0.6-0.1-0.9-0.2c-0.3-0.1-0.5-0.3-0.7-0.5c-0.2-0.2-0.4-0.5-0.5-0.7c-0.1-0.3-0.2-0.6-0.2-0.9v-5.4
					h-1.6v-1h1.6v-2.1l1-0.2v2.3h2.2v1H349v5.5c0,0.2,0,0.3,0.1,0.5c0.1,0.2,0.2,0.3,0.3,0.4s0.2,0.2,0.4,0.3
					c0.2,0.1,0.3,0.1,0.5,0.1h1v1H350.3z"/>
				<path d="M354.7,149.1v-1.4h1.2v1.4H354.7z M354.8,159.9v-8.7h1v8.7H354.8z"/>
				<path d="M365.2,158.5c-0.1,0.3-0.3,0.6-0.5,0.8c-0.2,0.2-0.5,0.4-0.8,0.5c-0.3,0.1-0.6,0.2-1,0.2h-0.7c-0.4,0-0.7-0.1-1-0.2
					c-0.3-0.1-0.6-0.3-0.8-0.5c-0.2-0.2-0.4-0.5-0.5-0.8s-0.2-0.6-0.2-1v-3.9c0-0.4,0.1-0.7,0.2-1s0.3-0.6,0.5-0.8
					c0.2-0.2,0.5-0.4,0.8-0.5c0.3-0.1,0.6-0.2,1-0.2h0.7c0.4,0,0.7,0.1,1,0.2c0.3,0.1,0.6,0.3,0.8,0.5c0.2,0.2,0.4,0.5,0.5,0.8
					c0.1,0.3,0.2,0.6,0.2,1v3.9C365.4,157.9,365.3,158.2,365.2,158.5z M364.3,153.6c0-0.2,0-0.4-0.1-0.6c-0.1-0.2-0.2-0.3-0.3-0.5
					c-0.1-0.1-0.3-0.2-0.5-0.3c-0.2-0.1-0.4-0.1-0.6-0.1h-0.7c-0.2,0-0.4,0-0.6,0.1c-0.2,0.1-0.3,0.2-0.5,0.3s-0.2,0.3-0.3,0.5
					c-0.1,0.2-0.1,0.4-0.1,0.6v4c0,0.2,0,0.4,0.1,0.6s0.2,0.3,0.3,0.5s0.3,0.2,0.5,0.3c0.2,0.1,0.4,0.1,0.6,0.1h0.7
					c0.2,0,0.4,0,0.6-0.1c0.2-0.1,0.3-0.2,0.5-0.3c0.1-0.1,0.2-0.3,0.3-0.5s0.1-0.4,0.1-0.6V153.6z"/>
				<path d="M372.2,159.9v-6.4c0-0.2,0-0.4-0.1-0.6c-0.1-0.2-0.2-0.3-0.3-0.5c-0.1-0.1-0.3-0.2-0.5-0.3c-0.2-0.1-0.4-0.1-0.6-0.1
					H370c-0.2,0-0.4,0-0.6,0.1c-0.2,0.1-0.3,0.2-0.5,0.3s-0.2,0.3-0.3,0.5c-0.1,0.2-0.1,0.4-0.1,0.6v6.4h-1v-8.7h0.3l0.6,0.9
					c0.2-0.3,0.5-0.6,0.9-0.8c0.4-0.2,0.8-0.3,1.2-0.3h0.3c0.4,0,0.7,0.1,1,0.2c0.3,0.1,0.6,0.3,0.8,0.5c0.2,0.2,0.4,0.5,0.5,0.8
					c0.1,0.3,0.2,0.6,0.2,1v6.3H372.2z"/>
				<path d="M381.3,157.7c0,0.4-0.1,0.7-0.2,1c-0.1,0.3-0.3,0.5-0.6,0.8c-0.2,0.2-0.5,0.4-0.8,0.5c-0.3,0.1-0.7,0.2-1,0.2H378
					c-0.4,0-0.7-0.1-1-0.2c-0.3-0.1-0.6-0.3-0.8-0.5c-0.2-0.2-0.4-0.5-0.6-0.8s-0.2-0.6-0.2-1v-0.3l1-0.2v0.6c0,0.2,0,0.4,0.1,0.6
					s0.2,0.3,0.4,0.5c0.1,0.1,0.3,0.2,0.5,0.3c0.2,0.1,0.4,0.1,0.6,0.1h0.7c0.2,0,0.4,0,0.6-0.1c0.2-0.1,0.4-0.2,0.5-0.3
					c0.2-0.1,0.3-0.3,0.4-0.4s0.1-0.4,0.1-0.6c0-0.3-0.1-0.6-0.2-0.8c-0.1-0.2-0.3-0.4-0.5-0.5s-0.5-0.2-0.8-0.3
					c-0.3-0.1-0.6-0.2-0.9-0.3c-0.3-0.1-0.6-0.2-0.9-0.3c-0.3-0.1-0.5-0.3-0.8-0.4c-0.2-0.2-0.4-0.4-0.5-0.7s-0.2-0.6-0.2-1
					c0-0.4,0.1-0.7,0.2-1s0.3-0.5,0.6-0.8c0.2-0.2,0.5-0.4,0.8-0.5c0.3-0.1,0.6-0.2,1-0.2h0.6c0.4,0,0.7,0.1,1,0.2
					c0.3,0.1,0.6,0.3,0.8,0.5c0.2,0.2,0.4,0.5,0.5,0.8c0.1,0.3,0.2,0.6,0.2,1v0l-1,0.2v-0.3c0-0.2,0-0.4-0.1-0.6
					c-0.1-0.2-0.2-0.3-0.3-0.5s-0.3-0.2-0.5-0.3c-0.2-0.1-0.4-0.1-0.6-0.1h-0.6c-0.2,0-0.4,0-0.6,0.1c-0.2,0.1-0.3,0.2-0.5,0.3
					c-0.1,0.1-0.2,0.3-0.3,0.4c-0.1,0.2-0.1,0.4-0.1,0.6c0,0.3,0.1,0.5,0.2,0.7s0.3,0.3,0.5,0.5s0.5,0.2,0.8,0.3
					c0.3,0.1,0.6,0.2,0.9,0.3s0.6,0.2,0.9,0.3c0.3,0.1,0.5,0.3,0.8,0.5c0.2,0.2,0.4,0.4,0.5,0.7S381.3,157.3,381.3,157.7z"/>
			</g>
		</g>
		<g>
			<path d="M369.6,59v5.2h-1V59h-1.8v-0.9h4.6V59H369.6z M377.1,64.2v-3.4l-1.7,3.4h-0.5l-1.6-3.4v3.4h-1v-6.1h0.6l2.3,4.6l2.3-4.6
				h0.5v6.1H377.1z"/>
		</g>
	</g>
</g>
</svg>
