<?xml version="1.0" encoding="utf-8"?>
<!-- Generator: Adobe Illustrator 25.2.3, SVG Export Plug-In . SVG Version: 6.00 Build 0)  -->
<svg version="1.1" xmlns="http://www.w3.org/2000/svg" xmlns:xlink="http://www.w3.org/1999/xlink" x="0px" y="0px"
	 viewBox="0 0 160.6 216" style="enable-background:new 0 0 160.6 216;" xml:space="preserve">
<style type="text/css">
	.st0{display:none;}
	.st1{display:inline;}
	.st2{fill:#23A5DC;}
	.st3{fill:#EF5E17;}
	.st4{fill:#FFFFFF;}
</style>
<g id="Calque_2" class="st0">
</g>
<g id="Calque_1">
	<g>
		<polygon points="80.9,68.4 109.3,167.4 128.8,167.4 86.2,22.8 74.2,22.8 31.9,167.4 52.3,167.4 		"/>
		<path d="M80.4,141.5L80.4,141.5h-0.1c-10.7,0-19.3,8.7-19.3,19.4c0,2.3,0.9,7.9,3.8,12.4c3.6,5.6,14,18,15.6,19.9l0.1,0.1l0.1-0.1
			c1.5-1.8,12-14.3,15.5-19.9c2.8-4.5,3.8-10.1,3.8-12.4C99.7,150.1,91,141.5,80.4,141.5"/>
	</g>
</g>
</svg>
